<svg xmlns="http://www.w3.org/2000/svg" width="13" height="13" viewBox="0 0 13 13"><g transform="translate(-140 -294)"><circle cx="6.5" cy="6.5" r="6.5" transform="translate(140 294)" fill="#fff"/><path d="M6.5,1A5.5,5.5,0,1,0,12,6.5,5.506,5.506,0,0,0,6.5,1m0-1A6.5,6.5,0,1,1,0,6.5,6.5,6.5,0,0,1,6.5,0Z" transform="translate(140 294)" fill="#c6c6c6"/><path d="M1109.5-659.958a.5.5,0,0,1-.5-.5v-4.254a.5.5,0,0,1,.5-.5.5.5,0,0,1,.5.5v4.254A.5.5,0,0,1,1109.5-659.958Z" transform="translate(-962.853 961.088)" fill="#aaa"/><path d="M0,4.31a.5.5,0,0,1-.5-.5V0A.5.5,0,0,1,0-.5.5.5,0,0,1,.5,0V3.81A.5.5,0,0,1,0,4.31Z" transform="translate(150.458 300.647) rotate(90)" fill="#aaa"/></g></svg>